<?xml version="1.0" standalone="no"?>
<!DOCTYPE svg PUBLIC "-//W3C//DTD SVG 20010904//EN"
 "http://www.w3.org/TR/2001/REC-SVG-20010904/DTD/svg10.dtd">
<svg version="1.0" xmlns="http://www.w3.org/2000/svg"
 width="1000.000000pt" height="1000.000000pt" viewBox="0 0 1000.000000 1000.000000"
 preserveAspectRatio="xMidYMid meet">
<metadata>
Created by potrace 1.16, written by Peter Selinger 2001-2019
</metadata>
<g transform="translate(0.000000,1000.000000) scale(0.100000,-0.100000)"
fill="#000000" stroke="none">
<path d="M6533 6920 c-22 -5 -61 -18 -85 -30 -30 -15 -261 -240 -745 -723
l-703 -702 -692 692 c-753 752 -732 734 -860 749 -43 5 -72 2 -129 -15 -61
-19 -81 -31 -130 -80 -49 -49 -61 -69 -80 -130 -17 -57 -20 -86 -15 -129 15
-128 -3 -107 749 -859 l692 -693 -701 -702 c-557 -559 -706 -713 -725 -753
-34 -72 -38 -189 -9 -267 62 -165 263 -248 430 -178 49 21 133 101 762 729
l708 706 702 -702 c793 -792 751 -757 899 -757 66 0 86 5 142 32 117 58 181
160 181 292 0 147 34 106 -757 898 l-702 702 702 703 c631 631 705 708 729
762 54 117 31 259 -55 358 -65 74 -206 118 -308 97z"/>
</g>
</svg>
