<?xml version="1.0" standalone="no"?>
<!DOCTYPE svg PUBLIC "-//W3C//DTD SVG 20010904//EN"
 "http://www.w3.org/TR/2001/REC-SVG-20010904/DTD/svg10.dtd">
<svg version="1.0" xmlns="http://www.w3.org/2000/svg"
 width="1000.000000pt" height="1000.000000pt" viewBox="0 0 1000.000000 1000.000000"
 preserveAspectRatio="xMidYMid meet">
<metadata>
Created by potrace 1.16, written by Peter Selinger 2001-2019
</metadata>
<g transform="translate(0.000000,1000.000000) scale(0.100000,-0.100000)"
fill="#000000" stroke="none">
<path d="M4236 6539 c-148 -22 -314 -86 -436 -169 -82 -56 -200 -169 -262
-250 -65 -86 -143 -243 -174 -355 -35 -124 -45 -360 -19 -483 33 -164 92 -304
182 -431 26 -36 247 -268 492 -516 246 -247 534 -539 641 -648 107 -109 209
-207 227 -218 42 -26 125 -35 183 -19 49 13 -10 -45 951 925 295 299 429 441
464 493 129 198 185 382 185 612 0 175 -37 334 -111 483 -103 205 -300 396
-504 487 -308 138 -639 132 -939 -19 l-120 -60 -65 38 c-195 113 -464 164
-695 130z"/>
</g>
</svg>
