<?xml version="1.0" standalone="no"?>
<!DOCTYPE svg PUBLIC "-//W3C//DTD SVG 20010904//EN"
 "http://www.w3.org/TR/2001/REC-SVG-20010904/DTD/svg10.dtd">
<svg version="1.0" xmlns="http://www.w3.org/2000/svg"
 width="1000.000000pt" height="1000.000000pt" viewBox="0 0 1000.000000 1000.000000"
 preserveAspectRatio="xMidYMid meet">
<metadata>
Created by potrace 1.16, written by Peter Selinger 2001-2019
</metadata>
<g transform="translate(0.000000,1000.000000) scale(0.100000,-0.100000)"
fill="#f76d63" stroke="none">
<path d="M3785 7054 c-114 -17 -160 -27 -180 -40 -52 -34 -57 -120 -10 -164
30 -28 58 -30 195 -11 160 22 344 1 494 -57 211 -82 401 -284 571 -606 64
-119 90 -146 146 -146 53 0 79 27 144 149 236 443 463 624 829 663 505 52 945
-255 1084 -755 27 -96 23 -410 -6 -533 -86 -364 -271 -659 -678 -1083 -115
-120 -119 -125 -119 -168 0 -38 5 -49 33 -74 25 -22 42 -29 75 -29 41 0 45 3
182 143 347 353 545 647 659 975 60 173 77 273 83 487 4 168 2 202 -17 295
-66 323 -265 609 -544 781 -383 236 -913 237 -1271 4 -150 -98 -262 -219 -387
-415 -34 -55 -66 -100 -70 -100 -3 0 -21 25 -38 55 -17 30 -56 90 -87 132
-195 272 -406 416 -703 478 -73 16 -324 28 -385 19z"/>
<path d="M3168 6804 c-36 -19 -48 -43 -48 -94 0 -33 6 -48 29 -71 65 -64 171
-20 171 71 0 52 -13 76 -50 95 -36 19 -67 19 -102 -1z"/>
<path d="M2858 6413 c-34 -21 -81 -124 -116 -253 -25 -89 -26 -109 -26 -315 0
-189 3 -234 22 -321 72 -330 224 -616 510 -959 132 -157 464 -480 892 -866
373 -336 753 -689 789 -732 16 -20 71 -32 102 -22 13 4 84 66 158 138 75 72
222 209 326 305 195 178 219 208 208 265 -9 47 -49 77 -104 77 l-48 0 -178
-162 c-98 -90 -226 -210 -285 -267 l-108 -103 -157 149 c-87 82 -324 300 -528
483 -477 431 -630 576 -778 735 -286 309 -455 566 -542 829 -58 175 -70 250
-70 451 0 196 7 240 66 387 35 89 34 130 -5 167 -32 30 -93 37 -128 14z"/>
<path d="M5941 4057 c-32 -19 -50 -54 -51 -100 -1 -105 150 -136 195 -40 33
69 -6 140 -82 149 -22 3 -48 -1 -62 -9z"/>
</g>
</svg>
